<svg xmlns="http://www.w3.org/2000/svg" viewBox="0 0 25.66 30.31"><defs><style>.cls-1{fill:#fff;}</style></defs><title>ic_sidemenu_logout</title><g id="Layer_2" data-name="Layer 2"><g id="레이어_1" data-name="레이어 1"><path class="cls-1" d="M21.63,11.38a10.55,10.55,0,0,0-4.88-3.87,1.06,1.06,0,0,1,.78-2,12.83,12.83,0,1,1-13.77,21,12.83,12.83,0,0,1,4.38-21,1.06,1.06,0,0,1,1.38.6,1.08,1.08,0,0,1-.6,1.38A10.7,10.7,0,1,0,20.4,25"/><path class="cls-1" d="M12.83,12.51c-.59,0-1.06-.32-1.06-.71V.72c0-.4.47-.72,1.06-.72s1.06.32,1.06.72V11.8C13.89,12.19,13.42,12.51,12.83,12.51Z"/></g></g></svg>