<svg xmlns="http://www.w3.org/2000/svg" viewBox="0 0 19.65 26.49"><defs><style>.cls-1{fill:#d6d6d6;}</style></defs><title>ic_lock</title><g id="Layer_2" data-name="Layer 2"><g id="레이어_1" data-name="레이어 1"><path class="cls-1" d="M5.77,9.14V6.32a4.06,4.06,0,0,1,8.11,0V9.14h2.27V6.32a6.33,6.33,0,0,0-12.65,0V9.14Z"/><path class="cls-1" d="M17.25,11.51H2.4A2.4,2.4,0,0,0,0,13.91V24.09a2.39,2.39,0,0,0,2.4,2.4H17.25a2.39,2.39,0,0,0,2.4-2.4V13.91A2.4,2.4,0,0,0,17.25,11.51Zm-7.43,11A2.49,2.49,0,0,1,8.33,18a1.89,1.89,0,0,1-.45-1.22,1.95,1.95,0,0,1,3.89,0A1.89,1.89,0,0,1,11.32,18a2.49,2.49,0,0,1-1.5,4.49Z"/></g></g></svg>