<svg xmlns="http://www.w3.org/2000/svg" xmlns:xlink="http://www.w3.org/1999/xlink" viewBox="0 0 19.23 19.23"><defs><style>.cls-1{fill:url(#무제_그라디언트_3);}</style><radialGradient id="무제_그라디언트_3" cx="3.43" cy="1.68" r="22.52" gradientUnits="userSpaceOnUse"><stop offset="0" stop-color="#e87132"/><stop offset="0.05" stop-color="#e16a4c"/><stop offset="0.18" stop-color="#d3596b"/><stop offset="0.29" stop-color="#c94d81"/><stop offset="0.41" stop-color="#c3468e"/><stop offset="0.51" stop-color="#c14393"/><stop offset="0.63" stop-color="#ae4393"/><stop offset="0.89" stop-color="#7c4292"/><stop offset="1" stop-color="#644191"/></radialGradient></defs><title>ic_sidemenu_notification</title><g id="Layer_2" data-name="Layer 2"><g id="레이어_1" data-name="레이어 1"><path class="cls-1" d="M18.42,0,19.2.8,10.39,9.61l8.81,8.82-.78.77L9.61,10.39.77,19.23,0,18.45,8.84,9.61,0,.8.8,0,9.61,8.84M4,9.61a2,2,0,0,1-2,2,2,2,0,0,1,0-4A2,2,0,0,1,4,9.61ZM9.61,4a2,2,0,0,1-2-2,2,2,0,0,1,4,0A2,2,0,0,1,9.61,4Zm0,11.21a2,2,0,1,1-2,2A2,2,0,0,1,9.61,15.22Zm5.61-5.61a2,2,0,1,1,2,2A2,2,0,0,1,15.22,9.61Z"/></g></g></svg>