<svg xmlns="http://www.w3.org/2000/svg" viewBox="0 0 19.75 21.15"><defs><style>.cls-1{fill:#fff;}</style></defs><title>ic_sidemenu_close</title><g id="Layer_2" data-name="Layer 2"><g id="레이어_1" data-name="레이어 1"><path class="cls-1" d="M19.55,19.72l-8.13-9.1,8.08-9.2c.39-.45.16-1-.53-1.29h0a1.93,1.93,0,0,0-2,.34L9.91,8.55,2.69.47a1.93,1.93,0,0,0-2-.34C0,.4-.2,1,.2,1.43l8.12,9.09L.25,19.72c-.4.45-.16,1,.53,1.3h0a1.91,1.91,0,0,0,2-.35L9.84,12.6l7.22,8.08A1.92,1.92,0,0,0,19,21C19.72,20.75,20,20.17,19.55,19.72Z"/></g></g></svg>