<svg xmlns="http://www.w3.org/2000/svg" viewBox="0 0 22.33 22.33"><defs><style>.cls-1{fill:#f5e02e;}.cls-2{fill:#010100;}</style></defs><title>ic_kakao</title><g id="Layer_2" data-name="Layer 2"><g id="레이어_1" data-name="레이어 1"><path class="cls-1" d="M2.41,22.33A2.41,2.41,0,0,1,0,19.92V2.41A2.41,2.41,0,0,1,2.41,0H19.92a2.41,2.41,0,0,1,2.41,2.41V19.92"/><path class="cls-2" d="M11.12,4.24c-4.3,0-7.79,2.75-7.79,6.14A6,6,0,0,0,7,15.59c-.12.41-.76,2.64-.79,2.82,0,0,0,.13.07.18a.24.24,0,0,0,.19,0c.24,0,2.84-1.86,3.29-2.17a10.43,10.43,0,0,0,1.38.09c4.3,0,7.79-2.75,7.79-6.14s-3.49-6.14-7.79-6.14Z"/><path class="cls-1" d="M6.82,12.53a.44.44,0,0,1-.45-.43V9.43H5.66a.44.44,0,0,1,0-.88H8a.44.44,0,1,1,0,.88H7.26V12.1A.44.44,0,0,1,6.82,12.53Zm3.93,0a.37.37,0,0,1-.37-.2l-.22-.58H8.79l-.22.58a.37.37,0,0,1-.38.2.67.67,0,0,1-.28-.06c-.13-.06-.25-.22-.11-.64L8.87,9a.7.7,0,0,1,.6-.44.67.67,0,0,1,.6.44l1.08,2.83c.13.42,0,.58-.11.64a.72.72,0,0,1-.29.06Zm-.83-1.58h0L9.47,9.67m2.4,2.79a.42.42,0,0,1-.43-.41V9a.45.45,0,0,1,.46-.45.46.46,0,0,1,.46.45v2.64h1a.41.41,0,1,1,0,.82Zm2-3.46a.45.45,0,0,1,.45-.45.45.45,0,0,1,.45.45v1l1.26-1.25a.36.36,0,0,1,.25-.1.43.43,0,0,1,.3.13.47.47,0,0,1,.14.29.38.38,0,0,1-.1.27l-1,1,1.11,1.46a.5.5,0,0,1,.09.33.45.45,0,0,1-.18.3.44.44,0,0,1-.27.09.47.47,0,0,1-.36-.18l-1-1.39-.16.15v1a.45.45,0,0,1-.45.45h0"/></g></g></svg>