<svg xmlns="http://www.w3.org/2000/svg" xmlns:xlink="http://www.w3.org/1999/xlink" viewBox="0 0 569.81 1244.12"><defs><style>.cls-1{fill:url(#radial-gradient);}</style><radialGradient id="radial-gradient" cx="-4.31" cy="-12.33" r="1362.94" gradientUnits="userSpaceOnUse"><stop offset="0" stop-color="#e87132"/><stop offset="0.08" stop-color="#de654c"/><stop offset="0.19" stop-color="#d1566b"/><stop offset="0.31" stop-color="#c84c81"/><stop offset="0.41" stop-color="#c3458e"/><stop offset="0.51" stop-color="#c14393"/><stop offset="0.63" stop-color="#ae4393"/><stop offset="0.89" stop-color="#7c4292"/><stop offset="1" stop-color="#644191"/></radialGradient></defs><title>bg_home</title><g id="Layer_2" data-name="Layer 2"><g id="레이어_1" data-name="레이어 1"><path class="cls-1" d="M569.81,59.09V1185a59.15,59.15,0,0,1-59.15,59.15H59.15A59.15,59.15,0,0,1,0,1185V59.09A59.2,59.2,0,0,1,59.15,0h52.5a10.92,10.92,0,0,1,10.92,10.92h0A34.46,34.46,0,0,0,157.05,45.4h257a34.48,34.48,0,0,0,34.48-34.48h0A10.92,10.92,0,0,1,459.47,0h51.24A59.1,59.1,0,0,1,569.81,59.09Z"/></g></g></svg>