<svg xmlns="http://www.w3.org/2000/svg" xmlns:xlink="http://www.w3.org/1999/xlink" viewBox="0 0 104.76 120.96"><defs><style>.cls-1{fill:url(#radial-gradient);}.cls-2{fill:url(#radial-gradient-2);}.cls-3{fill:#fff;}</style><radialGradient id="radial-gradient" cx="43.63" cy="68.19" r="92.39" gradientUnits="userSpaceOnUse"><stop offset="0" stop-color="#e87132"/><stop offset="0.08" stop-color="#de654c"/><stop offset="0.19" stop-color="#d1566b"/><stop offset="0.31" stop-color="#c84c81"/><stop offset="0.41" stop-color="#c3458e"/><stop offset="0.51" stop-color="#c14393"/><stop offset="0.63" stop-color="#ae4393"/><stop offset="0.89" stop-color="#7c4292"/><stop offset="1" stop-color="#644191"/></radialGradient><radialGradient id="radial-gradient-2" cx="-21.68" cy="13.44" r="161.91" gradientUnits="userSpaceOnUse"><stop offset="0.17" stop-color="#e87132"/><stop offset="0.23" stop-color="#e06845"/><stop offset="0.45" stop-color="#ca4d7d"/><stop offset="0.56" stop-color="#c14393"/><stop offset="0.62" stop-color="#9f3c87"/><stop offset="0.69" stop-color="#7f347c"/><stop offset="0.76" stop-color="#662f73"/><stop offset="0.83" stop-color="#542b6d"/><stop offset="0.91" stop-color="#492969"/><stop offset="1" stop-color="#462868"/></radialGradient></defs><title>login_logo</title><g id="Layer_2" data-name="Layer 2"><g id="레이어_1" data-name="레이어 1"><polygon class="cls-1" points="52.4 21.96 52.4 58.12 37.03 66.97 37.03 30.82 52.4 21.96"/><path class="cls-2" d="M103.75,29.65,53.4.59l-1-.59-1,.59L1,29.65l-1,.59V90.72l1,.59,50.34,29.06,1,.59,1-.59,7.46-4.31,6.88-4v0l36-20.78,1-.59V30.24ZM21.69,100.87l18.17-10.5-7.08,16.89Zm81-11.34L83.1,78.21,64.91,88.7,72,71.8,52.4,60.47,2.05,89.53V60.47l7.68,5L17.4,61V42.17L2.05,51V31.41l50.35-29,50.32,29.05Z"/><path class="cls-3" d="M52.4,2.36,2.05,31.41V51L17.4,42.17V61L9.73,65.49l-7.68-5V89.53L52.4,60.47,72,71.8V62.36L83.1,68.77v9.44l19.62,11.32V31.41Zm0,55.76L37,67V30.82L52.4,22Zm30.7-9L72,42.74V33.28L83.1,39.69Z"/><polygon class="cls-3" points="83.1 78.21 64.91 88.7 72.01 71.8 83.1 78.21"/><polygon class="cls-3" points="39.86 90.37 32.78 107.26 21.69 100.87 39.86 90.37"/><polygon class="cls-1" points="83.1 68.77 83.1 78.21 72.01 71.8 72.01 62.36 83.1 68.77"/><polygon class="cls-1" points="83.1 39.69 83.1 49.15 72.01 42.74 72.01 33.28 83.1 39.69"/></g></g></svg>