<svg xmlns="http://www.w3.org/2000/svg" xmlns:xlink="http://www.w3.org/1999/xlink" viewBox="0 0 22.33 22.33"><defs><style>.cls-1{fill:url(#Degradado_sin_nombre_5);}.cls-2{fill:#fff;}</style><linearGradient id="Degradado_sin_nombre_5" x1="0.7" y1="0.7" x2="21.62" y2="21.62" gradientUnits="userSpaceOnUse"><stop offset="0" stop-color="#00a4d5"/><stop offset="1" stop-color="#008cc7"/></linearGradient></defs><title>ic_telegram</title><g id="Layer_2" data-name="Layer 2"><g id="레이어_1" data-name="레이어 1"><rect class="cls-1" width="22.33" height="22.33" rx="2.41" ry="2.41"/><path class="cls-2" d="M16.24,6a.35.35,0,0,0-.14,0L4.26,10.52a.38.38,0,0,0,0,.72L7,12.16l1.65,3.32h0a.18.18,0,0,0,.16.1.21.21,0,0,0,.11,0l1.55-1.32L8.77,12.92l.14,1.72L7.66,12.07l6.62-4L8.77,12.92l4.29,3.25a.76.76,0,0,0,.47.16.78.78,0,0,0,.76-.59L16.6,6.47A.38.38,0,0,0,16.24,6Z"/></g></g></svg>