<svg xmlns="http://www.w3.org/2000/svg" viewBox="0 0 267.58 37.48"><defs><style>.cls-1{fill:none;stroke:#f2f2f2;stroke-miterlimit:10;}.cls-2{fill:#d6d6d6;}</style></defs><title>bg_login_password</title><g id="Layer_2" data-name="Layer 2"><g id="레이어_1" data-name="레이어 1"><g id="password"><rect class="cls-1" x="0.5" y="0.5" width="266.58" height="36.48" rx="7" ry="7"/><path class="cls-2" d="M18.45,16.4V14.8a2.31,2.31,0,1,1,4.61,0v1.6h1.3V14.8a3.6,3.6,0,1,0-7.2,0v1.6Z"/><path class="cls-2" d="M25,17.75H16.53a1.37,1.37,0,0,0-1.37,1.37v5.8a1.36,1.36,0,0,0,1.37,1.36H25a1.36,1.36,0,0,0,1.36-1.36v-5.8A1.36,1.36,0,0,0,25,17.75ZM20.76,24a1.42,1.42,0,0,1-.86-2.55,1.17,1.17,0,0,1-.25-.7,1.11,1.11,0,1,1,2.21,0,1.17,1.17,0,0,1-.25.7A1.42,1.42,0,0,1,20.76,24Z"/></g></g></g></svg>