<svg xmlns="http://www.w3.org/2000/svg" xmlns:xlink="http://www.w3.org/1999/xlink" viewBox="0 0 431.31 377.7"><defs><style>.cls-1{fill:url(#radial-gradient);}.cls-2{fill:#e6e6e5;}.cls-3{fill:#df443b;}.cls-4{fill:#f2f2f2;}.cls-5{fill:#e8e7e6;}.cls-6{fill:#cccdcc;}.cls-7{fill:#a02924;}.cls-8{fill:#eb5f58;}.cls-9{fill:#a5d079;}.cls-10{fill:#f7d267;}.cls-11{fill:#49bdc5;}.cls-12{fill:#378ea0;}.cls-13{fill:#666767;}.cls-14{fill:#b4b3b3;}.cls-15{fill:#99999a;}.cls-16{fill:url(#radial-gradient-3);}.cls-17{fill:#232323;}</style><radialGradient id="radial-gradient" cx="325.23" cy="228.07" r="267.43" gradientUnits="userSpaceOnUse"><stop offset="0" stop-color="#e87132"/><stop offset="0.08" stop-color="#de654c"/><stop offset="0.19" stop-color="#d1566b"/><stop offset="0.31" stop-color="#c84c81"/><stop offset="0.41" stop-color="#c3458e"/><stop offset="0.51" stop-color="#c14393"/><stop offset="0.63" stop-color="#ae4393"/><stop offset="0.89" stop-color="#7c4292"/><stop offset="1" stop-color="#644191"/></radialGradient><radialGradient id="radial-gradient-3" cx="142.77" cy="32.2" r="240.68" xlink:href="#radial-gradient"/></defs><title>ic_congrats</title><g id="Layer_2" data-name="Layer 2"><g id="레이어_1" data-name="레이어 1"><polygon class="cls-1" points="214.35 249.71 214.35 377.7 99.29 332.57 99.29 226.48 214.35 249.71"/><polygon class="cls-2" points="101.72 226.97 100.57 226.74 99.29 228.08 99.29 229.5 101.72 226.97"/><polygon class="cls-2" points="108.58 228.36 107.44 228.13 99.29 236.62 99.29 238.05 108.58 228.36"/><polygon class="cls-2" points="115.44 229.74 114.3 229.51 99.29 245.16 99.29 246.59 115.44 229.74"/><polygon class="cls-2" points="122.31 231.13 121.16 230.9 99.29 253.7 99.29 255.14 122.31 231.13"/><polygon class="cls-2" points="129.17 232.51 128.02 232.28 99.29 262.25 99.29 263.68 129.17 232.51"/><polygon class="cls-2" points="136.03 233.9 134.88 233.66 99.29 270.79 99.29 272.22 136.03 233.9"/><polygon class="cls-2" points="142.89 235.28 141.75 235.05 99.29 279.33 99.29 280.76 142.89 235.28"/><polygon class="cls-2" points="149.75 236.67 148.61 236.44 99.29 287.88 99.29 289.31 149.75 236.67"/><polygon class="cls-2" points="156.62 238.05 155.47 237.82 99.29 296.42 99.29 297.85 156.62 238.05"/><polygon class="cls-2" points="163.48 239.44 162.33 239.21 99.29 304.96 99.29 306.39 163.48 239.44"/><polygon class="cls-2" points="170.34 240.82 169.19 240.59 99.29 313.5 99.29 314.94 170.34 240.82"/><polygon class="cls-2" points="177.21 242.21 176.05 241.97 99.29 322.05 99.29 323.48 177.21 242.21"/><polygon class="cls-2" points="184.06 243.59 182.91 243.36 99.29 330.59 99.29 332.02 184.06 243.59"/><polygon class="cls-2" points="190.93 244.98 189.78 244.75 103.87 334.37 104.86 334.75 190.93 244.98"/><polygon class="cls-2" points="197.79 246.36 196.64 246.13 109.82 336.7 110.81 337.09 197.79 246.36"/><polygon class="cls-2" points="204.65 247.75 203.5 247.51 115.77 339.03 116.77 339.42 204.65 247.75"/><polygon class="cls-2" points="211.51 249.13 210.36 248.9 121.72 341.37 122.72 341.76 211.51 249.13"/><polygon class="cls-2" points="214.35 254.71 214.35 253.28 127.67 343.7 128.67 344.09 214.35 254.71"/><polygon class="cls-2" points="214.35 263.25 214.35 261.82 133.62 346.04 134.62 346.43 214.35 263.25"/><polygon class="cls-2" points="214.35 271.8 214.35 270.37 139.58 348.37 140.57 348.76 214.35 271.8"/><polygon class="cls-2" points="214.35 280.34 214.35 278.91 145.53 350.7 146.52 351.09 214.35 280.34"/><polygon class="cls-2" points="214.35 288.88 214.35 287.45 151.48 353.04 152.48 353.43 214.35 288.88"/><polygon class="cls-2" points="214.35 297.42 214.35 295.99 157.43 355.37 158.43 355.76 214.35 297.42"/><polygon class="cls-2" points="214.35 305.97 214.35 304.54 163.38 357.71 164.38 358.1 214.35 305.97"/><polygon class="cls-2" points="214.35 314.51 214.35 313.08 169.33 360.04 170.33 360.43 214.35 314.51"/><polygon class="cls-2" points="214.35 323.05 214.35 321.62 175.28 362.38 176.28 362.77 214.35 323.05"/><polygon class="cls-2" points="214.35 331.6 214.35 330.17 181.24 364.71 182.23 365.1 214.35 331.6"/><polygon class="cls-2" points="214.35 340.14 214.35 338.71 187.19 367.04 188.19 367.44 214.35 340.14"/><polygon class="cls-2" points="214.35 348.68 214.35 347.25 193.14 369.38 194.14 369.77 214.35 348.68"/><polygon class="cls-2" points="214.35 357.22 214.35 355.8 199.09 371.71 200.09 372.1 214.35 357.22"/><polygon class="cls-2" points="214.35 365.77 214.35 364.34 205.05 374.05 206.04 374.44 214.35 365.77"/><polygon class="cls-2" points="214.35 374.31 214.35 372.88 211 376.38 212 376.77 214.35 374.31"/><polygon class="cls-3" points="214.35 249.71 214.35 377.7 329.41 332.57 329.41 226.48 214.35 249.71"/><polygon class="cls-1" points="214.35 249.71 214.35 377.7 329.41 332.57 329.41 226.48 214.35 249.71"/><polygon class="cls-2" points="328.82 226.6 327.67 226.84 329.41 228.66 329.41 227.22 328.82 226.6"/><polygon class="cls-2" points="321.96 227.99 320.81 228.22 329.41 237.2 329.41 235.77 321.96 227.99"/><polygon class="cls-2" points="315.09 229.37 313.94 229.6 329.41 245.74 329.41 244.31 315.09 229.37"/><polygon class="cls-2" points="308.23 230.76 307.08 230.99 329.41 254.28 329.41 252.86 308.23 230.76"/><polygon class="cls-2" points="301.37 232.14 300.22 232.38 329.41 262.83 329.41 261.4 301.37 232.14"/><polygon class="cls-2" points="294.51 233.53 293.36 233.76 329.41 271.37 329.41 269.94 294.51 233.53"/><polygon class="cls-2" points="287.65 234.91 286.5 235.14 329.41 279.91 329.41 278.48 287.65 234.91"/><polygon class="cls-2" points="280.78 236.3 279.64 236.53 329.41 288.45 329.41 287.03 280.78 236.3"/><polygon class="cls-2" points="273.92 237.68 272.77 237.91 329.41 297 329.41 295.57 273.92 237.68"/><polygon class="cls-2" points="267.06 239.07 265.91 239.3 329.41 305.54 329.41 304.11 267.06 239.07"/><polygon class="cls-2" points="260.2 240.45 259.05 240.69 329.41 314.09 329.41 312.65 260.2 240.45"/><polygon class="cls-2" points="253.34 241.84 252.19 242.07 329.41 322.62 329.41 321.2 253.34 241.84"/><polygon class="cls-2" points="246.48 243.22 245.33 243.45 329.41 331.17 329.41 329.74 246.48 243.22"/><polygon class="cls-2" points="239.61 244.61 238.46 244.84 324.44 334.52 325.44 334.13 239.61 244.61"/><polygon class="cls-2" points="232.75 245.99 231.6 246.22 318.49 336.86 319.48 336.46 232.75 245.99"/><polygon class="cls-2" points="225.89 247.38 224.74 247.61 312.54 339.19 313.53 338.8 225.89 247.38"/><polygon class="cls-2" points="219.03 248.76 217.88 248.99 306.58 341.52 307.58 341.13 219.03 248.76"/><polygon class="cls-2" points="214.35 252.43 214.35 253.86 300.63 343.86 301.63 343.47 214.35 252.43"/><polygon class="cls-2" points="214.35 260.97 214.35 262.4 294.68 346.19 295.68 345.8 214.35 260.97"/><polygon class="cls-2" points="214.35 269.52 214.35 270.95 288.73 348.53 289.72 348.14 214.35 269.52"/><polygon class="cls-2" points="214.35 278.06 214.35 279.49 282.77 350.86 283.77 350.47 214.35 278.06"/><polygon class="cls-2" points="214.35 286.6 214.35 288.03 276.82 353.2 277.82 352.81 214.35 286.6"/><polygon class="cls-2" points="214.35 295.14 214.35 296.57 270.87 355.53 271.87 355.14 214.35 295.14"/><polygon class="cls-2" points="214.35 303.69 214.35 305.12 264.92 357.87 265.92 357.47 214.35 303.69"/><polygon class="cls-2" points="214.35 312.23 214.35 313.66 258.97 360.2 259.96 359.81 214.35 312.23"/><polygon class="cls-2" points="214.35 320.77 214.35 322.2 253.02 362.53 254.01 362.14 214.35 320.77"/><polygon class="cls-2" points="214.35 329.31 214.35 330.75 247.06 364.87 248.06 364.48 214.35 329.31"/><polygon class="cls-2" points="214.35 337.86 214.35 339.29 241.11 367.2 242.11 366.81 214.35 337.86"/><polygon class="cls-2" points="214.35 346.4 214.35 347.83 235.16 369.54 236.16 369.15 214.35 346.4"/><polygon class="cls-2" points="214.35 354.94 214.35 356.37 229.21 371.87 230.21 371.48 214.35 354.94"/><polygon class="cls-2" points="214.35 363.49 214.35 364.92 223.26 374.2 224.25 373.81 214.35 363.49"/><polygon class="cls-2" points="214.35 372.03 214.35 373.46 217.31 376.54 218.3 376.15 214.35 372.03"/><polygon class="cls-4" points="214.35 201.94 99.29 226.48 214.35 249.71 329.41 226.48 214.35 201.94"/><polygon class="cls-5" points="110.05 226.42 214.35 204.17 318.66 226.42 214.35 247.48 110.05 226.42"/><polygon class="cls-6" points="214.35 204.17 318.66 226.42 214.35 247.48 214.35 204.17"/><path class="cls-7" d="M266.51,357.24s21.23-2.91,22.69-30.6,32.48-11.91,32.48-11.91,2.82,11.54-10.32,24.92Z"/><path class="cls-3" d="M289.2,326.64s5.6-13.89,16.22-3.68,25.73,21.64,40.84,12.25l-7.16.46,4.86-5.78h-3.57l4.86-7.51-6.7,4.12,1.58-4.89-2.68.58L340,316l-1.73,1,.22-5.58s-.57,15.12-16.82,3.34S288.91,310.52,289.2,326.64Z"/><path class="cls-7" d="M162.2,357.24s-21.24-2.91-22.69-30.6S107,314.73,107,314.73s-2.83,11.54,10.31,24.92Z"/><path class="cls-3" d="M139.51,326.64s-5.61-13.89-16.22-3.68S97.56,344.6,82.44,335.21l7.17.46-4.86-5.78h3.57l-4.86-7.51,6.7,4.12-1.59-4.89,2.69.58L88.69,316l1.74,1-.23-5.58s.58,15.12,16.83,3.34S139.8,310.52,139.51,326.64Z"/><polygon class="cls-8" points="7.16 170.85 4.8 168.71 0 167.32 2.35 169.46 7.16 170.85"/><polygon class="cls-9" points="12.96 165.32 14.16 169.3 15.18 169.6 15.17 166.57 12.96 165.32"/><polygon class="cls-10" points="29.87 193.24 29.4 188.11 27.49 191.67 27.95 196.8 29.87 193.24"/><polygon class="cls-11" points="21.13 153.53 28.04 155.98 29.85 149.93 22.94 147.48 21.13 153.53"/><polygon class="cls-9" points="96.03 60.12 97.01 59.84 96.27 59.43 96.03 60.12"/><polygon class="cls-12" points="83.17 77.17 86.37 81.64 85.51 76.86 82.31 72.39 83.17 77.17"/><polygon class="cls-10" points="137.84 73.68 136.93 77.62 138.72 82.45 139.63 78.51 137.84 73.68"/><polygon class="cls-8" points="21.94 51.49 24.77 52.94 29.77 53.02 26.94 51.57 21.94 51.49"/><polygon class="cls-8" points="87 178.75 89.84 180.2 94.84 180.28 92 178.83 87 178.75"/><polygon class="cls-11" points="131.18 121.56 129.54 116.65 125.85 112.59 127.49 117.51 131.18 121.56"/><polygon class="cls-11" points="61.43 138.53 55.44 142.76 59.33 147.73 65.32 143.5 61.43 138.53"/><polygon class="cls-11" points="71.01 86.78 65.02 91.01 68.92 95.98 74.91 91.76 71.01 86.78"/><polygon class="cls-9" points="107.66 99.14 102.34 101.79 105.1 108.11 110.42 105.47 107.66 99.14"/><polygon class="cls-9" points="43.88 56.91 49.2 54.27 46.44 47.94 41.12 50.59 43.88 56.91"/><polygon class="cls-8" points="109.33 77.8 104.01 80.44 106.77 86.77 112.09 84.12 109.33 77.8"/><polygon class="cls-8" points="33.84 92.32 28.52 94.97 31.28 101.3 36.6 98.65 33.84 92.32"/><polygon class="cls-12" points="98.19 52.63 94.58 58.51 96.27 59.43 97.27 56.59 100.75 55.61 99.51 59.13 97.01 59.84 99.79 61.36 103.4 55.48 98.19 52.63"/><polygon class="cls-12" points="100.75 55.61 97.27 56.59 96.27 59.43 97.01 59.84 99.51 59.13 100.75 55.61"/><polygon class="cls-12" points="72.41 151.31 68.79 157.19 74 160.05 77.62 154.17 72.41 151.31"/><polygon class="cls-12" points="152.9 98.35 149.28 104.22 154.5 107.08 158.11 101.2 152.9 98.35"/><polygon class="cls-10" points="121.27 66.43 125.03 67.39 121.67 62 120.03 61.97 121.27 66.43"/><polygon class="cls-9" points="33.33 120.32 28.1 121.8 26.24 127.09 31.46 125.61 33.33 120.32"/><polygon class="cls-12" points="19.35 95.54 15.79 96.55 14.53 100.14 18.08 99.13 19.35 95.54"/><polygon class="cls-9" points="29.92 84.53 27.72 81 26.65 80.98 27.45 83.89 29.92 84.53"/><polygon class="cls-9" points="51.05 64.57 47.58 65.44 51.93 67.53 55.4 66.67 51.05 64.57"/><polygon class="cls-10" points="112.65 160.1 109.53 154.7 107.78 158.27 110.89 163.67 112.65 160.1"/><polygon class="cls-10" points="93.06 165.82 89.95 160.42 88.19 163.99 91.3 169.4 93.06 165.82"/><polygon class="cls-9" points="79.59 182.06 80.4 184.98 82.86 185.61 80.66 182.08 79.59 182.06"/><polygon class="cls-9" points="46.5 113.39 43.02 114.38 41.77 117.9 45.25 116.92 46.5 113.39"/><polygon class="cls-8" points="11.37 85.35 12.63 81.75 9.08 82.76 7.81 86.35 11.37 85.35"/><polygon class="cls-10" points="59.22 163.1 61.01 167.93 61.92 163.99 60.13 159.16 59.22 163.1"/><polygon class="cls-9" points="90.42 99.65 93.91 98.66 95.15 95.14 91.67 96.12 90.42 99.65"/><polygon class="cls-8" points="59.47 89.45 58.2 93.04 61.76 92.03 63.02 88.44 59.47 89.45"/><polygon class="cls-8" points="44.96 140.15 48.51 139.15 49.78 135.55 46.23 136.56 44.96 140.15"/><polygon class="cls-8" points="243.4 182.73 244.94 186.09 245.24 186.14 247.56 184.32 247.15 183.43 243.4 182.73"/><polygon class="cls-11" points="225.51 184.43 222.57 189.04 222.32 193.35 225.25 188.74 225.51 184.43"/><polygon class="cls-11" points="180.88 226.48 176.57 231.1 181.68 236.37 185.99 231.75 180.88 226.48"/><polygon class="cls-9" points="201.55 196.6 198.11 191.75 192.29 195.46 195.72 200.31 201.55 196.6"/><polygon class="cls-10" points="233.86 191.69 233.71 190.61 230.9 191.88 230.66 194.46 233.86 191.69"/><polygon class="cls-9" points="184.43 200.44 183.04 205.06 184.44 208.35 185.83 203.73 184.43 200.44"/><polygon class="cls-11" points="202.18 230.29 206.09 225.67 204.82 221.36 200.91 225.97 202.18 230.29"/><polygon class="cls-9" points="135.38 203.5 131.71 202.82 133.22 206.11 136.9 206.79 135.38 203.5"/><polygon class="cls-8" points="110.22 209.41 111.76 212.76 115.51 213.46 113.97 210.11 110.22 209.41"/><polygon class="cls-8" points="424.15 186.77 426.51 184.63 431.31 183.24 428.96 185.38 424.15 186.77"/><polygon class="cls-9" points="418.35 181.24 417.15 185.22 416.13 185.52 416.14 182.49 418.35 181.24"/><polygon class="cls-8" points="272.31 225.48 274.67 223.33 279.48 221.94 277.12 224.09 272.31 225.48"/><polygon class="cls-9" points="266.51 219.94 265.32 223.92 264.29 224.22 264.31 221.19 266.51 219.94"/><polygon class="cls-10" points="401.44 209.16 401.9 204.03 403.82 207.59 403.36 212.72 401.44 209.16"/><polygon class="cls-11" points="410.19 169.44 403.27 171.9 401.46 165.85 408.37 163.4 410.19 169.44"/><polygon class="cls-10" points="316.27 156.3 314.03 159.9 312.94 159.92 313.76 156.94 316.27 156.3"/><polygon class="cls-9" points="335.28 76.04 334.3 75.76 335.04 75.35 335.28 76.04"/><polygon class="cls-12" points="348.14 93.09 344.94 97.55 345.8 92.77 349 88.31 348.14 93.09"/><polygon class="cls-10" points="293.47 89.6 294.38 93.54 292.59 98.37 291.68 94.43 293.47 89.6"/><polygon class="cls-8" points="409.37 67.41 406.54 68.86 401.54 68.94 404.37 67.48 409.37 67.41"/><polygon class="cls-8" points="344.31 194.66 341.47 196.12 336.47 196.2 339.31 194.75 344.31 194.66"/><polygon class="cls-11" points="300.13 137.48 301.77 132.57 305.46 128.51 303.82 133.43 300.13 137.48"/><polygon class="cls-11" points="369.88 154.45 375.87 158.68 371.98 163.65 365.99 159.42 369.88 154.45"/><polygon class="cls-11" points="279.63 203.19 285.62 207.42 281.73 212.39 275.74 208.16 279.63 203.19"/><polygon class="cls-11" points="360.3 102.7 366.29 106.93 362.39 111.9 356.4 107.68 360.3 102.7"/><polygon class="cls-9" points="351.47 135.72 356.79 138.36 354.03 144.69 348.71 142.05 351.47 135.72"/><polygon class="cls-9" points="323.65 115.06 328.97 117.71 326.21 124.03 320.89 121.39 323.65 115.06"/><polygon class="cls-9" points="387.44 72.83 382.11 70.19 384.87 63.86 390.19 66.51 387.44 72.83"/><polygon class="cls-8" points="321.98 93.71 327.3 96.36 324.54 102.69 319.22 100.04 321.98 93.71"/><polygon class="cls-8" points="397.47 108.24 402.79 110.89 400.03 117.21 394.71 114.57 397.47 108.24"/><polygon class="cls-12" points="296.69 155.28 301.57 154.84 298.81 161.17 293.49 158.52 296.69 155.28"/><polygon class="cls-12" points="333.11 68.55 336.73 74.42 335.04 75.35 334.04 72.51 330.55 71.53 331.8 75.05 334.3 75.76 331.52 77.28 327.9 71.4 333.11 68.55"/><polygon class="cls-12" points="330.55 71.53 334.04 72.51 335.04 75.35 334.3 75.76 331.8 75.05 330.55 71.53"/><polygon class="cls-12" points="358.9 167.23 362.52 173.11 357.31 175.97 353.69 170.09 358.9 167.23"/><polygon class="cls-12" points="302.36 179.01 305.98 184.89 300.77 187.75 297.15 181.87 302.36 179.01"/><polygon class="cls-12" points="278.41 114.27 282.03 120.14 276.81 123 273.2 117.12 278.41 114.27"/><polygon class="cls-10" points="281.34 134.82 282.71 140.73 280.02 147.98 278.65 142.07 281.34 134.82"/><polygon class="cls-10" points="310.04 82.35 306.27 83.31 309.64 77.92 311.28 77.89 310.04 82.35"/><polygon class="cls-9" points="397.98 136.24 403.21 137.72 405.07 143.01 399.85 141.53 397.98 136.24"/><polygon class="cls-12" points="411.96 111.46 415.52 112.47 416.79 116.06 413.23 115.05 411.96 111.46"/><polygon class="cls-9" points="401.39 100.44 403.59 96.91 404.66 96.89 403.86 99.81 401.39 100.44"/><polygon class="cls-9" points="251.55 203.71 253.75 200.18 254.82 200.16 254.01 203.08 251.55 203.71"/><polygon class="cls-9" points="380.26 80.49 383.73 81.36 379.38 83.45 375.91 82.58 380.26 80.49"/><polygon class="cls-8" points="324.73 152.65 326.26 147.75 329.88 143.62 328.36 148.53 324.73 152.65"/><polygon class="cls-11" points="356.42 153.85 352.46 158.43 348.01 157.84 351.96 153.27 356.42 153.85"/><polygon class="cls-10" points="318.66 176.02 321.77 170.62 323.53 174.19 320.42 179.59 318.66 176.02"/><polygon class="cls-10" points="338.25 181.74 341.36 176.34 343.12 179.91 340.01 185.31 338.25 181.74"/><polygon class="cls-9" points="351.72 197.98 350.91 200.9 348.45 201.53 350.65 198 351.72 197.98"/><polygon class="cls-9" points="384.81 129.31 388.29 130.3 389.54 133.82 386.06 132.83 384.81 129.31"/><polygon class="cls-8" points="419.94 101.27 418.68 97.67 422.23 98.68 423.5 102.27 419.94 101.27"/><polygon class="cls-10" points="372.1 179.02 370.3 183.85 369.39 179.91 371.18 175.08 372.1 179.02"/><polygon class="cls-12" points="219.92 204.41 223.54 210.29 218.33 213.15 214.71 207.27 219.92 204.41"/><polygon class="cls-10" points="233.12 216.2 231.32 221.03 230.41 217.1 232.2 212.26 233.12 216.2"/><polygon class="cls-9" points="340.89 115.56 337.4 114.58 336.16 111.05 339.64 112.04 340.89 115.56"/><polygon class="cls-8" points="371.84 105.36 373.11 108.96 369.55 107.95 368.29 104.36 371.84 105.36"/><polygon class="cls-11" points="262.06 186.01 268.05 190.24 264.15 195.21 258.16 190.98 262.06 186.01"/><polygon class="cls-8" points="273.6 188.67 274.87 192.26 271.31 191.25 270.05 187.66 273.6 188.67"/><polygon class="cls-8" points="386.35 156.07 382.8 155.06 381.53 151.47 385.08 152.48 386.35 156.07"/><polygon class="cls-11" points="322.05 236.09 326.36 240.7 321.25 245.97 316.94 241.35 322.05 236.09"/><polygon class="cls-9" points="305.57 205.84 311.08 204.81 308.81 209.75 303.3 210.77 305.57 205.84"/><polygon class="cls-9" points="246.88 216.36 248.27 220.98 246.87 224.27 245.48 219.65 246.88 216.36"/><polygon class="cls-11" points="316.91 263.49 313 258.87 314.27 254.56 318.17 259.17 316.91 263.49"/><polygon class="cls-9" points="295.93 219.42 299.6 218.74 298.09 222.03 294.41 222.71 295.93 219.42"/><polygon class="cls-11" points="267.49 163.11 264.56 158.49 264.3 154.18 267.24 158.79 267.49 163.11"/><polygon class="cls-11" points="225.51 240.83 222.57 236.21 222.32 231.9 225.25 236.52 225.51 240.83"/><polygon class="cls-8" points="321.09 225.33 319.55 228.68 315.8 229.38 317.34 226.03 321.09 225.33"/><path class="cls-9" d="M278.45,172.26h0a26.77,26.77,0,0,0-4.27.5l.26-.42C275.23,171.88,278.45,172.26,278.45,172.26Z"/><path class="cls-9" d="M259.8,139.16a5.85,5.85,0,0,1,1.36,1.34c-.07-.05-.48-.37-1.22-.83A1.8,1.8,0,0,0,259.8,139.16Z"/><path class="cls-7" d="M265,59.81s15.44-30.34,47-16.05,14.93,61.09-.67,69L296.13,95.81s13.7-5.66,7.8-32.79c0,0-19.56-1.79-27.2,16.09Z"/><path class="cls-3" d="M303.93,63l.09.43.81,0a29.09,29.09,0,0,1,24.82,14.3c1.26-13.56-3-27.31-17.7-34-31.55-14.29-47,16.05-47,16.05l11.77,19.3C284.37,61.23,303.93,63,303.93,63Z"/><ellipse class="cls-7" cx="257.25" cy="59.88" rx="18.73" ry="19.31" transform="translate(89.71 264.07) rotate(-63.73)"/><path class="cls-7" d="M252.86,52.51S258.26.69,212.9,0,168,69.76,224.37,66.84l3.24-7s-21.79-22.56-6.93-41.75c0,0,12,5.31,11.91,32.94Z"/><path class="cls-3" d="M220.68,18.06l0,0a18,18,0,0,1,13.77-6.56,17.58,17.58,0,0,1,9,2.51C237.58,6.2,228.09.23,212.9,0,167.53-.68,168,69.76,224.37,66.84l3.24-7S205.82,37.25,220.68,18.06Z"/><polygon class="cls-13" points="156.51 43.9 256.24 61.92 331.95 135.66 235.74 103.47 156.51 43.9"/><polygon class="cls-14" points="133.77 50.1 232.1 110.85 241.08 92.66 142.14 33.14 133.77 50.1"/><polygon class="cls-15" points="340.13 151.93 232.1 110.85 241.08 92.66 348.5 134.97 340.13 151.93"/><polygon class="cls-16" points="260.97 52.34 247.26 80.12 133.77 50.1 142.14 33.14 260.97 52.34"/><polygon class="cls-2" points="147.49 34 146.3 33.81 137.04 43.47 135.58 46.42 147.49 34"/><polygon class="cls-2" points="154.58 35.15 153.4 34.95 137.84 51.18 138.94 51.47 154.58 35.15"/><polygon class="cls-2" points="161.67 36.29 160.49 36.1 144.38 52.91 145.47 53.19 161.67 36.29"/><polygon class="cls-2" points="168.76 37.44 167.58 37.25 150.91 54.63 152 54.92 168.76 37.44"/><polygon class="cls-2" points="175.85 38.58 174.67 38.39 157.44 56.36 158.54 56.65 175.85 38.58"/><polygon class="cls-2" points="182.95 39.73 181.76 39.54 163.98 58.09 165.07 58.38 182.95 39.73"/><polygon class="cls-2" points="190.04 40.88 188.85 40.68 170.51 59.82 171.6 60.11 190.04 40.88"/><polygon class="cls-2" points="197.13 42.02 195.94 41.83 177.04 61.55 178.14 61.83 197.13 42.02"/><polygon class="cls-2" points="204.22 43.17 203.03 42.98 183.57 63.27 184.67 63.56 204.22 43.17"/><polygon class="cls-2" points="211.31 44.31 210.13 44.12 190.11 65 191.2 65.29 211.31 44.31"/><polygon class="cls-2" points="218.4 45.46 217.22 45.27 196.64 66.73 197.74 67.02 218.4 45.46"/><polygon class="cls-2" points="225.49 46.6 224.31 46.41 203.18 68.46 204.27 68.75 225.49 46.6"/><polygon class="cls-2" points="232.59 47.75 231.4 47.56 209.71 70.19 210.8 70.47 232.59 47.75"/><polygon class="cls-2" points="239.68 48.9 238.49 48.7 216.24 71.91 217.34 72.2 239.68 48.9"/><polygon class="cls-2" points="246.77 50.04 245.58 49.85 222.77 73.64 223.87 73.93 246.77 50.04"/><polygon class="cls-2" points="253.86 51.19 252.67 51 229.31 75.37 230.4 75.66 253.86 51.19"/><polygon class="cls-2" points="260.95 52.33 259.76 52.14 235.84 77.1 236.93 77.39 260.95 52.33"/><polygon class="cls-2" points="252.31 69.88 253.76 66.94 242.38 78.83 243.47 79.11 252.31 69.88"/><polygon class="cls-16" points="260.97 52.34 247.26 80.12 340.13 151.93 348.5 134.97 260.97 52.34"/><polygon class="cls-2" points="252.04 70.44 251.21 72.12 252.39 84.09 253.47 84.92 252.04 70.44"/><polygon class="cls-2" points="256.99 60.42 256.16 62.09 258.83 89.06 259.9 89.89 256.99 60.42"/><polygon class="cls-2" points="262.25 53.54 261.15 52.51 265.26 94.03 266.33 94.86 262.25 53.54"/><polygon class="cls-2" points="268.8 59.73 267.7 58.69 271.69 99.01 272.77 99.84 268.8 59.73"/><polygon class="cls-2" points="275.36 65.91 274.26 64.88 278.13 103.98 279.2 104.81 275.36 65.91"/><polygon class="cls-2" points="281.91 72.1 280.81 71.06 284.56 108.95 285.63 109.79 281.91 72.1"/><polygon class="cls-2" points="288.46 78.28 287.36 77.25 290.99 113.93 292.07 114.76 288.46 78.28"/><polygon class="cls-2" points="295.01 84.47 293.92 83.44 297.42 118.91 298.5 119.74 295.01 84.47"/><polygon class="cls-2" points="301.56 90.66 300.47 89.62 303.86 123.88 304.93 124.71 301.56 90.66"/><polygon class="cls-2" points="308.12 96.84 307.02 95.81 310.29 128.85 311.36 129.68 308.12 96.84"/><polygon class="cls-2" points="314.67 103.03 313.57 101.99 316.72 133.83 317.8 134.66 314.67 103.03"/><polygon class="cls-2" points="321.22 109.21 320.12 108.18 323.15 138.8 324.23 139.63 321.22 109.21"/><polygon class="cls-2" points="327.77 115.4 326.68 114.36 329.59 143.78 330.66 144.61 327.77 115.4"/><polygon class="cls-2" points="334.33 121.58 333.23 120.55 336.02 148.75 337.1 149.58 334.33 121.58"/><polygon class="cls-2" points="340.88 127.77 339.78 126.73 341.92 148.32 342.75 146.64 340.88 127.77"/><polygon class="cls-2" points="347.43 133.95 346.34 132.92 346.87 138.28 347.69 136.61 347.43 133.95"/><path class="cls-7" d="M178.12,39s-13.24,33.22-27.57,36.24l6.38.7s-3.77,5.79-8.18,6.67l11.87-4.23s-.47,5.27-3.52,7.13c0,0,6.86-.9,8.31-4.46,0,0,1.51,7.47-.68,9.44,0,0,22.06-11.35,32.57-48.39Z"/><path class="cls-7" d="M307.88,96.61s-9.33,44-26.37,53.43l7.2-2.77-3,6.59,11.66-7.36-5.74,12.82,8.65-5.72-2,7.56,6.88-3.77-4.84,10,6.51-3.4L304.28,171s18.75-21.6,20.78-58.19Z"/><path class="cls-17" d="M74.57,118.68,78.25,116c1.41,2.59,3.23,3.64,5.41,3.64,3.36,0,5-1.82,5-6.73V90.19H94v23.22c0,6-2.9,10.82-9.72,10.82A10.27,10.27,0,0,1,74.57,118.68Z"/><path class="cls-17" d="M102.61,90.19H108l11.09,19.63,3.49,7.09h.23c-.27-3.45-.68-7.5-.68-11.13V90.19h5v33.45h-5.41l-11.09-19.72-3.49-7h-.23c.27,3.45.68,7.31.68,11v15.77h-5Z"/><path class="cls-17" d="M151.42,114.09H139.79l-2.87,9.55h-5.36l11.09-33.45h6.09l11.08,33.45h-5.58ZM150.15,110l-1.32-4.5c-1.14-3.63-2.14-7.36-3.18-11.13h-.18c-1,3.81-2,7.5-3.09,11.13L141,110Z"/><path class="cls-17" d="M114,144.73h5.59l5,17.31c1.14,3.82,1.86,7.09,3,11h.22c1.14-3.86,2-7.13,3-11l5-17.31h5.36l-10.45,33.44h-6.22Z"/><path class="cls-17" d="M143.2,161.32c0-10.77,6-17.23,14.54-17.23s14.58,6.46,14.58,17.23-6,17.44-14.58,17.44S143.2,172.09,143.2,161.32Zm23.72,0c0-7.87-3.64-12.64-9.18-12.64s-9.14,4.77-9.14,12.64,3.59,12.86,9.14,12.86S166.92,169.18,166.92,161.32Z"/><path class="cls-17" d="M184.82,149.14H175v-4.41h25v4.41H190.1v29h-5.28Z"/><path class="cls-17" d="M205.73,144.73H211v33.44h-5.27Z"/><path class="cls-17" d="M219.77,144.73h5.41l11.09,19.63,3.5,7.09H240c-.27-3.45-.68-7.5-.68-11.13V144.73h5v33.44H238.9l-11.08-19.72-3.5-7h-.23c.27,3.45.68,7.31.68,10.95v15.76h-5Z"/><path class="cls-17" d="M251.31,161.54c0-10.9,6.73-17.45,15.59-17.45a13.31,13.31,0,0,1,10,4.23L274,151.68a9.06,9.06,0,0,0-6.91-3c-6.22,0-10.36,4.82-10.36,12.68s3.68,12.82,10.59,12.82a8.33,8.33,0,0,0,5.27-1.64v-7.86H266v-4.32h11.4v14.5a15,15,0,0,1-10.59,3.9C257.81,178.76,251.31,172.49,251.31,161.54Z"/></g></g></svg>